<svg id="Capa_1" data-name="Capa 1" xmlns="http://www.w3.org/2000/svg" viewBox="0 0 24 24"><path d="M23.3,11.3v1.4c-.1,0-.1.1-.1.2a10.4,10.4,0,0,1-1.5,4.8,11.5,11.5,0,0,1-7.8,5.4l-1.2.2H11.3c0-.1-.1-.1-.2-.1L9,22.8A11.1,11.1,0,0,1,.8,12.5,10.4,10.4,0,0,1,2.3,6.3,11,11,0,0,1,11.5.8a9.8,9.8,0,0,1,5.8,1.3,11,11,0,0,1,5.8,8C23.2,10.5,23.2,10.9,23.3,11.3ZM12.1,5.4A4.6,4.6,0,0,0,8.9,6.5,3.8,3.8,0,0,0,7.6,8.9,1.3,1.3,0,0,0,8.2,10a1.1,1.1,0,0,0,1.6-.6l.4-1a2.2,2.2,0,0,1,.9-1,2.5,2.5,0,0,1,1.7,0,1.5,1.5,0,0,1,.8,2.4l-.4.4-1.6,1.5a3.7,3.7,0,0,0-.9,2.5c.1.6.4,1,1,1s1-.2,1.1-.8a.8.8,0,0,0,.1-.4,1.9,1.9,0,0,1,.7-1.2l1.7-1.6A3.1,3.1,0,0,0,15,6.3,4.4,4.4,0,0,0,12.1,5.4Zm1.1,11.9a1.3,1.3,0,1,0-2.6,0,1.3,1.3,0,0,0,2.6,0Z"/></svg>