<svg id="Capa_1" data-name="Capa 1" xmlns="http://www.w3.org/2000/svg" viewBox="0 0 24 24"><path d="M21.38721,17.35059a9.71485,9.71485,0,0,0,0,3.25976,1.05472,1.05472,0,0,1,.38867.81543V22.125A1.04528,1.04528,0,0,1,20.728,23.17188H6.41357a4.19108,4.19108,0,0,1-4.18945-4.18946V5.01758A4.19046,4.19046,0,0,1,6.41357.82812H20.728A1.04528,1.04528,0,0,1,21.77588,1.875V16.53906A1.04083,1.04083,0,0,1,21.38721,17.35059Zm-2.51856.23535H6.41357a1.39649,1.39649,0,0,0,0,2.793H18.86865A15.69326,15.69326,0,0,1,18.86865,17.58594ZM7.81006,7.54883a.263.263,0,0,0,.26172.26172h9.252a.26321.26321,0,0,0,.2627-.26172V6.67578a.26258.26258,0,0,0-.2627-.26172h-9.252a.26236.26236,0,0,0-.26172.26172Zm0,2.793a.263.263,0,0,0,.26172.26172h9.252a.26321.26321,0,0,0,.2627-.26172v-.873a.26258.26258,0,0,0-.2627-.26172h-9.252a.26236.26236,0,0,0-.26172.26172Z" fill="#2196f3"/></svg>