<svg id="Capa_1" data-name="Capa 1" xmlns="http://www.w3.org/2000/svg" viewBox="0 0 24 24"><path d="M4.77926,3.33511V6.2234a.72226.72226,0,0,1-.72208.72208H1.16888A.72226.72226,0,0,1,.44681,6.2234V3.33511A.72226.72226,0,0,1,1.16888,2.613h2.8883A.72226.72226,0,0,1,4.77926,3.33511Zm0,7.22074v2.8883a.72226.72226,0,0,1-.72208.72207H1.16888a.72226.72226,0,0,1-.72207-.72207v-2.8883a.72226.72226,0,0,1,.72207-.72207h2.8883A.72226.72226,0,0,1,4.77926,10.55585Zm0,7.22075v2.88829a.72226.72226,0,0,1-.72208.72208H1.16888a.72226.72226,0,0,1-.72207-.72208V17.7766a.72226.72226,0,0,1,.72207-.72208h2.8883A.72226.72226,0,0,1,4.77926,17.7766ZM23.55319,4.05718V5.50133a.72225.72225,0,0,1-.72207.72207H8.38963a.72226.72226,0,0,1-.72208-.72207V4.05718a.72226.72226,0,0,1,.72208-.72207H22.83112A.72226.72226,0,0,1,23.55319,4.05718Zm0,7.22075v1.44414a.72226.72226,0,0,1-.72207.72208H8.38963a.72226.72226,0,0,1-.72208-.72208V11.27793a.72226.72226,0,0,1,.72208-.72208H22.83112A.72226.72226,0,0,1,23.55319,11.27793Zm0,7.22074v1.44415a.72226.72226,0,0,1-.72207.72207H8.38963a.72226.72226,0,0,1-.72208-.72207V18.49867a.72226.72226,0,0,1,.72208-.72207H22.83112A.72225.72225,0,0,1,23.55319,18.49867Z" fill="#fff"/></svg>