<svg id="Capa_1" data-name="Capa 1" xmlns="http://www.w3.org/2000/svg" viewBox="0 0 24 24"><path d="M23.38763,4.18878V9.15911a1.06523,1.06523,0,0,1-1.06529,1.0653H13.09081a1.065,1.065,0,0,1-1.065-1.0653V2.7686a1.06516,1.06516,0,0,1,1.065-1.0653H16.6416l1.42018,1.42019h4.26056A1.06543,1.06543,0,0,1,23.38763,4.18878Z" fill="#fff"/><path d="M23.38763,16.26107V21.2314a1.06523,1.06523,0,0,1-1.06529,1.0653H13.09081a1.065,1.065,0,0,1-1.065-1.0653V14.84089a1.06516,1.06516,0,0,1,1.065-1.0653H16.6416l1.42018,1.42018h4.26056A1.06543,1.06543,0,0,1,23.38763,16.26107Z" fill="#fff"/><path d="M10.654,19.50467c-2.99271,0-5.91774.01045-8.84261-.0074A1.253,1.253,0,0,1,.61415,18.10021Q.61016,12.22981.61288,6.3594q0-1.851.00058-3.702c.0012-.71265.16619-.87876.85488-.891,1.80142-.032,1.5811.064,1.58247,1.58257.00051.56412.02635,1.12985-.00819,1.69185-.02656.43227.13953.53463.54633.53148,2.18585-.01691,4.37189-.00847,6.55787-.00671.15445.00013.30889.01691.49765.028V8.086h-.57619c-2.15072,0-4.30153.01056-6.45208-.00877-.42982-.00386-.57793.10814-.5746.55757q.029,3.91339.001,7.82709c-.00287.4364.12788.57928.56889.5755,2.15055-.01847,4.30136-.00824,6.45208-.00816H10.654Z" fill="#fff"/></svg>