<svg id="Capa_1" data-name="Capa 1" xmlns="http://www.w3.org/2000/svg" viewBox="0 0 24 24"><path d="M23.55792,15.46738a4.62243,4.62243,0,0,1-4.62317,4.62316H5.64314A5.20228,5.20228,0,0,1,3.917,9.98113c-.00451-.09782-.00752-.19489-.00752-.29271a5.77951,5.77951,0,0,1,10.78889-2.882,3.468,3.468,0,0,1,5.16043,4.13181A4.62272,4.62272,0,0,1,23.55792,15.46738Zm-8.49838-3.29732L11.25205,8.36257a.58.58,0,0,0-.81568,0L6.62888,12.17006a.57678.57678,0,0,0,.40784.98573H9.39947v4.04527a.58.58,0,0,0,.57789.5779h1.73369a.58.58,0,0,0,.5779-.5779V13.15579H14.6517A.57776.57776,0,0,0,15.05954,12.17006Z" fill="#2196f3"/></svg>