<svg id="Capa_1" data-name="Capa 1" xmlns="http://www.w3.org/2000/svg" viewBox="0 0 24 24"><path d="M21.69868,2.995V4.38051a.69294.69294,0,0,1-.69276.69276H2.99408a.69294.69294,0,0,1-.69276-.69276V2.995a.69294.69294,0,0,1,.69276-.69277H8.1898l.40772-.81A1.02355,1.02355,0,0,1,9.5194.9167h4.95218V.91489a1.04077,1.04077,0,0,1,.9309.57731l.40772.81h5.19572A.69294.69294,0,0,1,21.69868,2.995ZM3.68685,6.4588h16.6263l-.91827,14.67791a2.07912,2.07912,0,0,1-2.07287,1.9484H6.678a2.08037,2.08037,0,0,1-2.07287-1.9484Z" /></svg>