<svg id="Capa_1" data-name="Capa 1" xmlns="http://www.w3.org/2000/svg" viewBox="0 0 24 24"><path d="M22.58386,6.95766,18.62195,2.99184a.97089.97089,0,0,0-.6875-.28321h-.24707V7.88832h5.17968V7.64125A.96859.96859,0,0,0,22.58386,6.95766Z" /><path d="M16.39245,8.21254V2.70863H8.72082l.986.98548A1.5245,1.5245,0,0,1,8.62964,6.29762H7.328V22.45668a.96817.96817,0,0,0,.9707.9707H21.89636a.96817.96817,0,0,0,.9707-.9707V9.18324h-5.5039A.97444.97444,0,0,1,16.39245,8.21254Zm2.43165,4.30957-2.43165,3.7832,2.43165,3.78321a.486.486,0,0,1-.40821.749H17.00378a.4869.4869,0,0,1-.42968-.25488c-.793-1.46485-1.47657-2.78028-1.47657-2.78028-.25879.59864-.40429.80957-1.48144,2.78418a.47935.47935,0,0,1-.42481.25489H11.77917a.48542.48542,0,0,1-.4082-.748l2.43945-3.78418L11.371,12.526a.48481.48481,0,0,1,.4082-.749h1.40821a.48844.48844,0,0,1,.42871.25489c1.05664,1.97461.80957,1.36035,1.48144,2.77246,0,0,.24707-.47364,1.48145-2.77246a.48843.48843,0,0,1,.42871-.25489h1.4082A.48246.48246,0,0,1,18.8241,12.52211Z" /><path d="M3.777,10.34666a.62914.62914,0,0,1-.63078-.63079v-4.418H.84009a.52484.52484,0,0,1-.3706-.89668L4.4687.39877a.5098.5098,0,0,1,.71836,0L9.19135,4.40115a.52471.52471,0,0,1-.3706.89668H6.51209v4.418a.62914.62914,0,0,1-.63078.63079Z" /></svg>