<svg id="Capa_1" data-name="Capa 1" xmlns="http://www.w3.org/2000/svg" viewBox="0 0 24 24"><path d="M14.97883,14.85747H13.03694a.41663.41663,0,0,1-.41663-.41663V12.499a.41663.41663,0,0,1,.41663-.41663h1.94189a.41663.41663,0,0,1,.41663.41663v1.94189A.41663.41663,0,0,1,14.97883,14.85747Zm-1.95211,1.76785,0,0a1.38761,1.38761,0,0,1,1.96234,0h0a1.38758,1.38758,0,0,1,0,1.96229l-.00006.00006a1.38753,1.38753,0,0,1-1.9623,0l-.00009-.00009A1.38753,1.38753,0,0,1,13.02672,16.62532Zm-3.99144-.54139h1.94194a.41663.41663,0,0,1,.41663.41663V18.4425a.41663.41663,0,0,1-.41663.41663H9.03528a.41663.41663,0,0,1-.41663-.41663V16.50056A.41663.41663,0,0,1,9.03528,16.08393Zm-.28313-2.90861.91088-.91091a.41663.41663,0,0,1,.58921,0l.91091.9109a.41665.41665,0,0,1,0,.58922l-.91091.91087a.41662.41662,0,0,1-.5892,0l-.91088-.91088A.41663.41663,0,0,1,8.75215,13.17532Z" fill="#fff"/><path d="M12.02,8.09777q4.43411-.00009,8.86822.00036c1.1463.00048,1.66361.51074,1.5676,1.65072-.22174,2.63286-.4851,5.2622-.72434,7.89362-.099,1.08841-.19666,2.17744-.26339,3.26812-.06863,1.12176-.52279,1.577-1.642,1.577q-7.82812.00025-15.65624,0c-1.07695-.00005-1.51546-.41875-1.61122-1.49208C2.22986,17.31,1.91212,13.62336,1.54847,9.94127c-.138-1.39754.66029-1.87677,1.65834-1.86051C6.14386,8.12861,9.08218,8.09783,12.02,8.09777Zm-.06645,12.89041a8.99435,8.99435,0,0,0,5.67267-1.92344,4.41241,4.41241,0,0,0,.242-6.91141,7.91906,7.91906,0,0,0-5.00107-2.07248,8.57259,8.57259,0,0,0-6.745,2.08662A4.34693,4.34693,0,0,0,5.9693,18.6667,8.47306,8.47306,0,0,0,11.95356,20.98818Z" fill="#fff"/><path d="M21.75047,6.70075H2.20826a3.2868,3.2868,0,0,1,.02695-1.09312A1.63629,1.63629,0,0,1,2.93645,4.877a1.71745,1.71745,0,0,1,.80377-.0799q8.26207-.00531,16.52415-.00247C21.6579,4.79475,22.044,5.27956,21.75047,6.70075Z" fill="#fff"/><path d="M2.86483,3.43166a8.29547,8.29547,0,0,1,.00991-1.12353A.90017.90017,0,0,1,3.74,1.52957,5.10144,5.10144,0,0,1,4.39639,1.516q7.66841-.00079,15.33683-.00029c1.18235.00007,1.59491.4546,1.43221,1.61569-.01688.12042-.19805.2279-.32.31845-.0473.03512-.14186.007-.21489.007q-8.65435,0-17.30871-.00092C3.19574,3.45591,3.06965,3.44293,2.86483,3.43166Z" fill="#fff"/></svg>