<?xml version="1.0" encoding="utf-8"?>
<!-- Generator: Adobe Illustrator 24.3.0, SVG Export Plug-In . SVG Version: 6.00 Build 0)  -->
<svg version="1.1" id="Capa_1" xmlns="http://www.w3.org/2000/svg" xmlns:xlink="http://www.w3.org/1999/xlink" x="0px" y="0px"
	 viewBox="0 0 24 24" style="enable-background:new 0 0 24 24;" xml:space="preserve">
<style type="text/css">
	.st0{fill:#FFFFFF;}
</style>
<g id="Grupo_6">
	<path id="Trazado_44" class="st0" d="M15.8,14.2c-0.6,0-1.1,0.5-1.1,1.1c0,0.6,0.5,1.1,1.1,1.1c0.6,0,1.1-0.5,1.1-1.1
		C17,14.8,16.5,14.2,15.8,14.2C15.8,14.2,15.8,14.2,15.8,14.2z M15.8,16.1c-0.4,0-0.7-0.3-0.7-0.7c0-0.4,0.3-0.7,0.7-0.7
		c0.4,0,0.7,0.3,0.7,0.7c0,0,0,0,0,0v0C16.5,15.8,16.2,16.1,15.8,16.1L15.8,16.1z"/>
	<path id="Trazado_45" class="st0" d="M15.8,13.3c-1.2,0-2.1,0.9-2.1,2.1c0,1.2,0.9,2.1,2.1,2.1s2.1-0.9,2.1-2.1l0,0
		C17.9,14.2,17,13.3,15.8,13.3z M15.8,17c-0.9,0-1.6-0.7-1.6-1.6c0-0.9,0.7-1.6,1.6-1.6c0.9,0,1.6,0.7,1.6,1.6l0,0
		C17.5,16.3,16.7,17,15.8,17L15.8,17z"/>
	<path id="Trazado_47" class="st0" d="M15.8,11.4c-2.2,0-4,1.8-4,4s1.8,4,4,4c2.2,0,4-1.8,4-4C19.9,13.2,18.1,11.4,15.8,11.4
		C15.8,11.4,15.8,11.4,15.8,11.4z M15.8,18.9c-2,0-3.5-1.6-3.5-3.5s1.6-3.5,3.5-3.5s3.5,1.6,3.5,3.5v0
		C19.4,17.3,17.8,18.9,15.8,18.9L15.8,18.9z"/>
	<path id="Trazado_49" class="st0" d="M18.2,10c-0.1-0.1-0.3,0-0.3,0.1s0,0.3,0.1,0.3c0.9,0.4,1.7,1.1,2.3,1.9
		c0.1,0.1,0.2,0.1,0.3,0c0.1-0.1,0.1-0.2,0.1-0.3C20.1,11.1,19.2,10.4,18.2,10z"/>
	<path id="Trazado_50" class="st0" d="M18.6,20.1c-2.6,1.5-5.9,0.6-7.5-2s-0.6-5.9,2-7.5c1.2-0.7,2.7-0.9,4-0.6c0.1,0,0.3,0,0.3-0.2
		c0-0.1,0-0.3-0.2-0.3c-3.2-0.8-6.4,1.1-7.2,4.3s1.1,6.4,4.3,7.2c1.5,0.4,3.1,0.2,4.4-0.6c0.1-0.1,0.1-0.2,0.1-0.3
		C18.8,20.1,18.7,20.1,18.6,20.1C18.6,20.1,18.6,20.1,18.6,20.1L18.6,20.1z"/>
	<path id="Trazado_51" class="st0" d="M17,21.7c-3.5,0.6-6.8-1.7-7.4-5.2s1.7-6.8,5.2-7.4c2.1-0.4,4.2,0.3,5.6,1.8
		c0.1,0.1,0.2,0.1,0.3,0c0.1-0.1,0.1-0.2,0-0.3c0,0,0,0,0,0c-2.7-2.7-7-2.7-9.7,0s-2.7,7,0,9.7c1.6,1.6,3.8,2.3,6,1.9
		c0.1,0,0.2-0.1,0.2-0.3S17.1,21.7,17,21.7L17,21.7L17,21.7z"/>
	<path id="Trazado_52" class="st0" d="M15.2,22.7c-4.1-0.4-7-4-6.7-8c0.2-1.6,0.8-3.2,2-4.4c0.1-0.1,0.1-0.2,0-0.3
		c-0.1-0.1-0.2-0.1-0.3,0c-1.9,1.5-4.3,2.2-6.7,2c-0.1,0-0.2,0.1-0.3,0.2c0,0.1,0.1,0.2,0.2,0.3l0,0c1.7,0.2,3.4-0.1,4.9-0.8
		c0.3-0.1,0.6-0.3,0.9-0.4C6.9,14.8,8,19.6,11.6,22c1.1,0.7,2.3,1.1,3.5,1.2h0c0.1,0,0.2-0.1,0.2-0.2C15.4,22.8,15.3,22.7,15.2,22.7
		L15.2,22.7z"/>
	<path id="Trazado_53" class="st0" d="M13.1,23.2C8.8,21.7,6.5,17,8,12.7c0-0.1,0-0.3-0.1-0.3c0,0-0.1,0-0.1,0
		c-0.3,0.1-0.7,0.2-1.1,0.3c-0.3,0.1-0.7,0.1-1,0.2c-0.7,0.1-1.4,0.1-2.1,0c-0.1,0-0.2,0.1-0.2,0.2c0,0.1,0.1,0.2,0.2,0.2
		c0.7,0.1,1.5,0,2.2,0c0.4,0,0.7-0.1,1-0.2c0.2-0.1,0.5-0.1,0.7-0.2c-1.3,4.5,1.2,9.1,5.6,10.7c0.1,0,0.3,0,0.3-0.1
		C13.3,23.4,13.2,23.3,13.1,23.2L13.1,23.2L13.1,23.2z"/>
	<path id="Trazado_54" class="st0" d="M11,23.3c-3.2-1.9-4.9-5.6-4.3-9.3c0-0.1-0.1-0.2-0.2-0.3c0,0,0,0-0.1,0
		c-0.3,0.1-0.6,0.1-1,0.1c-0.7,0.1-1.3,0.1-2,0c-0.1,0-0.2,0.1-0.2,0.2c0,0.1,0.1,0.2,0.2,0.2c0,0,0,0,0,0l0,0c0.7,0.1,1.4,0,2.1,0
		c0.2,0,0.5-0.1,0.7-0.1c-0.4,3.8,1.4,7.4,4.6,9.4c0.1,0.1,0.3,0,0.3-0.1C11.1,23.5,11.1,23.4,11,23.3L11,23.3z"/>
	<path id="Trazado_55" class="st0" d="M15.4,6c0,0.1,0.1,0.1,0.2,0.1c0.7,0,1.3,0,2,0.2c0.9,0.2,1.8,0.5,2.6,0.9
		c0.1,0.1,0.3,0,0.3-0.1c0.1-0.1,0-0.3-0.1-0.3l0,0c-0.9-0.5-1.8-0.8-2.8-1c-0.6-0.1-1.2-0.2-1.7-0.2c0.3-1,0.4-2.1,0.4-3.2
		c0-0.3,0-0.6,0-0.9c0-0.1-0.1-0.2-0.2-0.2c-0.1,0-0.2,0.1-0.2,0.2l0,0l0,0c0,0.3,0,0.6,0,0.9c0,1.1-0.2,2.3-0.5,3.4
		C15.3,5.9,15.3,6,15.4,6z"/>
	<path id="Trazado_56" class="st0" d="M6.5,19.7c-0.6-1.3-0.9-2.8-0.9-4.3c0-0.1,0-0.2,0-0.3c0-0.1-0.1-0.2-0.2-0.2c0,0,0,0,0,0
		c0,0,0,0,0,0c-0.6,0.1-1.3,0.1-1.9,0c-0.1,0-0.2,0.1-0.2,0.2c0,0.1,0.1,0.2,0.2,0.2c0,0,0,0,0,0l0,0c0.6,0,1.2,0,1.7,0v0
		c0,1.5,0.3,3.1,1,4.5C6.2,20,6.3,20,6.4,20C6.6,19.9,6.6,19.8,6.5,19.7L6.5,19.7L6.5,19.7z"/>
	<path id="Trazado_57" class="st0" d="M7.8,21.8c-0.4-0.5-0.7-0.9-0.9-1.5c-0.1-0.1-0.2-0.2-0.3-0.1c-0.1,0.1-0.2,0.2-0.1,0.3l0,0
		l0,0C7,21.4,7.6,22.3,8.3,23c0.1,0.1,0.2,0.1,0.3,0c0.1-0.1,0.1-0.2,0-0.3c0,0,0,0,0,0C8.3,22.4,8.1,22.1,7.8,21.8z"/>
	<path id="Trazado_58" class="st0" d="M17.8,4.3c0,0,0.1,0.1,0.1,0.1c0.4,0.1,0.8,0.2,1.2,0.3c0.1,0,0.3,0,0.3-0.2
		c0-0.1,0-0.3-0.2-0.3c0,0,0,0,0,0c-0.4-0.1-0.7-0.2-1.1-0.3c0-0.2,0.1-0.5,0.1-0.8c0-0.1,0-0.1,0-0.2c0-0.1-0.1-0.2-0.2-0.2
		c-0.1,0-0.2,0.1-0.2,0.2c0,0.1,0,0.1,0,0.2c0,0.3,0,0.6-0.1,0.9C17.7,4.2,17.7,4.3,17.8,4.3z"/>
	<path id="Trazado_59" class="st0" d="M4.7,16.1c0-0.1-0.1-0.2-0.2-0.2c-0.1,0-0.5,0-1,0c-0.1,0-0.2,0.1-0.2,0.2
		c0,0.1,0.1,0.2,0.2,0.2l0,0c0.3,0,0.5,0,0.8,0c0.2,1.8,0.7,3.5,1.6,5c0.1,0.1,0.2,0.1,0.3,0.1c0.1-0.1,0.1-0.2,0.1-0.3c0,0,0,0,0,0
		C5.3,19.6,4.8,17.9,4.7,16.1z"/>
	<path id="Trazado_60" class="st0" d="M5,4.5C5,4.5,5,4.5,5,4.5c0.8-0.3,1.4-0.9,1.5-1.7c0-0.1-0.1-0.2-0.2-0.3C6.1,2.5,6,2.6,6,2.7
		c0,0,0,0,0,0l0,0C5.9,3.3,5.5,3.8,4.9,4c-0.1,0-0.2,0.2-0.1,0.3C4.8,4.4,4.9,4.5,5,4.5L5,4.5z"/>
	<path id="Trazado_61" class="st0" d="M4.3,5.6c1.7,0,3.1-1.4,3.1-3.1c0-0.2,0-0.3,0-0.5c0-0.1-0.1-0.2-0.3-0.2C7,1.8,6.9,1.9,7,2
		c0.2,1.5-0.8,2.8-2.2,3c-0.1,0-0.3,0-0.4,0c-0.1,0-0.2,0.1-0.2,0.2C4.1,5.4,4.2,5.5,4.3,5.6L4.3,5.6z"/>
	<path id="Trazado_62" class="st0" d="M3.9,6.5c0.2,0,0.3,0,0.5,0c1.5,0,2.9-0.8,3.6-2.2C8,4.2,8,4.1,7.9,4C7.8,4,7.6,4,7.6,4.1l0,0
		c-0.6,1.2-1.9,2-3.2,1.9c-0.1,0-0.3,0-0.4,0C3.8,6,3.7,6.1,3.7,6.3C3.6,6.4,3.7,6.5,3.9,6.5L3.9,6.5L3.9,6.5z"/>
	<path id="Trazado_63" class="st0" d="M8,3.8c0.1,0,0.3,0,0.3-0.2l0,0c0.2-0.7,0.2-1.5,0.1-2.3c0-0.1-0.2-0.2-0.3-0.2
		c-0.1,0-0.2,0.2-0.2,0.3c0,0,0,0,0,0l0,0c0.2,0.7,0.2,1.4,0,2C7.8,3.6,7.8,3.8,8,3.8z"/>
	<path id="Trazado_64" class="st0" d="M3.6,7.5c0.2,0,0.5,0.1,0.8,0.1c2.8,0,5.1-2.3,5.1-5.1c0-0.5-0.1-1-0.2-1.4
		c0-0.1-0.2-0.2-0.3-0.2C8.8,0.9,8.7,1,8.8,1.1l0,0c0.7,2.5-0.7,5-3.1,5.8C5.2,7,4.8,7.1,4.3,7.1C4.1,7.1,3.9,7,3.7,7
		C3.5,7,3.4,7.1,3.4,7.2C3.4,7.3,3.5,7.4,3.6,7.5L3.6,7.5L3.6,7.5z"/>
	<path id="Trazado_65" class="st0" d="M3.4,8.4C6.2,8.9,8.9,7.3,10,4.7c0.3-0.7,0.5-1.5,0.4-2.3c0-0.6-0.1-1.2-0.3-1.7
		c0-0.1-0.2-0.2-0.3-0.2c-0.1,0-0.2,0.2-0.2,0.3l0,0l0,0C10.1,2,10,3.3,9.5,4.5v0l0,0c-1,2.4-3.5,3.8-6,3.4C3.4,8,3.3,8,3.2,8.2
		C3.2,8.3,3.3,8.4,3.4,8.4L3.4,8.4L3.4,8.4L3.4,8.4z"/>
	<path id="Trazado_66" class="st0" d="M3.4,9.4c3.9,0.5,7.4-2.2,7.9-6.1c0.1-1,0.1-1.9-0.2-2.9c0-0.1-0.2-0.2-0.3-0.2
		s-0.2,0.2-0.2,0.3c1,3.5-1,7.2-4.6,8.1C5.3,9,4.3,9.1,3.4,9C3.3,9,3.2,9,3.2,9.2C3.2,9.3,3.3,9.4,3.4,9.4C3.4,9.4,3.4,9.4,3.4,9.4
		C3.4,9.4,3.4,9.4,3.4,9.4z"/>
	<path id="Trazado_67" class="st0" d="M11.1,5.9C9.7,8.7,6.6,10.3,3.4,10c-0.1,0-0.2,0.1-0.3,0.2c0,0.1,0.1,0.2,0.2,0.3l0,0
		c1.3,0.1,2.5,0,3.7-0.4c3.9-1.4,6.1-5.5,5-9.5c0-0.1-0.2-0.2-0.3-0.2s-0.2,0.2-0.2,0.3l0,0l0,0C12.1,2.3,11.9,4.2,11.1,5.9
		L11.1,5.9z"/>
	<path id="Trazado_68" class="st0" d="M11.8,6.6c-0.4,0.7-0.9,1.4-1.5,2c-0.2,0.2-0.4,0.4-0.7,0.6l0,0C9,9.6,8.3,10.1,7.5,10.4h0
		l0,0c-1.3,0.5-2.7,0.7-4.1,0.6c-0.1,0-0.2,0.1-0.3,0.2c0,0.1,0.1,0.2,0.2,0.3c1.5,0.2,3,0,4.3-0.6l0,0C8.6,10.5,9.3,10,10,9.5l0,0
		l0,0c0.2-0.2,0.5-0.4,0.7-0.6l0,0l0,0c1.7-1.7,2.7-4,2.7-6.4c0-0.6-0.1-1.3-0.2-1.9c0-0.1-0.2-0.2-0.3-0.2c-0.1,0-0.2,0.2-0.2,0.3
		c0.1,0.6,0.2,1.2,0.2,1.8C12.9,3.9,12.5,5.3,11.8,6.6z"/>
	<path id="Trazado_69" class="st0" d="M12.6,7.3L12.6,7.3L12.6,7.3c-0.4,0.7-0.9,1.3-1.4,1.8c-0.1,0.1-0.1,0.2,0,0.3
		c0.1,0.1,0.2,0.1,0.3,0c2.7-2,6.3-1.9,8.9,0.1c0.1,0.1,0.2,0.1,0.3,0c0.1-0.1,0.1-0.2,0-0.3c-2.4-1.9-5.6-2.2-8.3-0.9
		c0.2-0.3,0.4-0.5,0.5-0.8l0,0c0.9-1.5,1.4-3.3,1.4-5.1c0-0.6,0-1.2-0.1-1.7c0-0.1-0.1-0.2-0.3-0.2s-0.2,0.1-0.2,0.3c0,0,0,0,0,0
		c0.1,0.5,0.1,1.1,0.1,1.6C13.9,4.1,13.4,5.8,12.6,7.3z"/>
	<path id="Trazado_70" class="st0" d="M13.9,6.9c0,0.1,0,0.2,0,0.2C14,7.2,14,7.3,14.1,7.2c1-0.2,2.1-0.2,3.1-0.1
		c1.1,0.2,2.2,0.6,3.1,1.2c0.1,0.1,0.3,0,0.3-0.1c0.1-0.1,0-0.3-0.1-0.3c-1-0.7-2.1-1.1-3.3-1.3c-0.9-0.2-1.9-0.2-2.9,0
		c0.6-1.4,0.9-2.8,0.9-4.3c0-0.5,0-0.9-0.1-1.4c0-0.1-0.1-0.2-0.3-0.2c-0.1,0-0.2,0.1-0.2,0.3c0,0,0,0,0,0c0.1,0.4,0.1,0.9,0.1,1.3
		C14.9,4,14.5,5.5,13.9,6.9z"/>
	<path id="Trazado_71" class="st0" d="M16.7,5.1c0,0,0.1,0.1,0.2,0.1c0.3,0,0.6,0.1,1,0.1c0.7,0.1,1.4,0.3,2,0.6
		c0.1,0,0.3,0,0.3-0.1c0-0.1,0-0.3-0.1-0.3l0,0l0,0c-0.7-0.3-1.4-0.5-2.1-0.6c-0.2,0-0.5-0.1-0.7-0.1c0.1-0.8,0.2-1.6,0.2-2.3V2.2
		c0,0,0-0.3-0.2-0.3c-0.2,0-0.2,0.3-0.2,0.3v0.2c0,0.8-0.1,1.7-0.2,2.5C16.6,5,16.6,5.1,16.7,5.1z"/>
</g>
</svg>
