<svg id="Capa_1" data-name="Capa 1" xmlns="http://www.w3.org/2000/svg" viewBox="0 0 24 24"><g id="Grupo_6" data-name="Grupo 6"><path id="Trazado_44" data-name="Trazado 44" d="M15.84669,14.2395a1.14823,1.14823,0,1,0,1.14819,1.14872A1.14832,1.14832,0,0,0,15.84669,14.2395Zm0,1.833a.68482.68482,0,1,1,.68478-.68485v.00059a.68534.68534,0,0,1-.68478.6826Z" fill="#fff"/><path id="Trazado_45" data-name="Trazado 45" d="M15.84563,13.285a2.10323,2.10323,0,1,0,2.10323,2.10323h0A2.10537,2.10537,0,0,0,15.84563,13.285Zm0,3.74417a1.63929,1.63929,0,1,1,1.63929-1.63929h0A1.641,1.641,0,0,1,15.84563,17.027Z" fill="#fff"/><path id="Trazado_46" data-name="Trazado 46" d="M15.84609,12.33055a3.05774,3.05774,0,1,0,3.05774,3.05773A3.0577,3.0577,0,0,0,15.84609,12.33055Zm0,5.65153a2.59377,2.59377,0,1,0,0-.00007Z" fill="#fff"/><path id="Trazado_47" data-name="Trazado 47" d="M15.84609,11.376a4.01221,4.01221,0,1,0,4.01225,4.01224A4.01219,4.01219,0,0,0,15.84609,11.376Zm0,7.56048a3.54827,3.54827,0,1,1,3.54824-3.5483v.00006A3.55259,3.55259,0,0,1,15.84609,18.93652Z" fill="#fff"/><path id="Trazado_48" data-name="Trazado 48" d="M20.76674,14.70834a4.98459,4.98459,0,1,0,.0467.67994A4.98459,4.98459,0,0,0,20.76674,14.70834Zm-.67663,2.18954a.76752.76752,0,1,0-.00219-.00053Z" fill="#fff"/><path id="Trazado_49" data-name="Trazado 49" d="M18.21746,9.96084a.23192.23192,0,1,0-.18614.42486,5.465,5.465,0,0,1,2.31434,1.91279.2317.2317,0,0,0,.37981-.26264A5.92887,5.92887,0,0,0,18.21746,9.96084Z" fill="#fff"/><path id="Trazado_50" data-name="Trazado 50" d="M18.57177,20.1173A5.45832,5.45832,0,1,1,17.168,10.09219a.23182.23182,0,1,0,.11234-.44983A5.92176,5.92176,0,1,0,18.804,20.51944a.23193.23193,0,1,0-.23223-.40154Z" fill="#fff"/><path id="Trazado_51" data-name="Trazado 51" d="M16.96666,21.70506a6.41281,6.41281,0,1,1,3.40775-10.85589.2317.2317,0,0,0,.36272-.2884A.22916.22916,0,0,0,20.7,10.52361a6.87351,6.87351,0,1,0-3.65409,11.64108.232.232,0,0,0-.08088-.45692Z" fill="#fff"/><path id="Trazado_52" data-name="Trazado 52" d="M15.1738,22.72415a7.36623,7.36623,0,0,1-4.68508-12.39158.23224.23224,0,0,0-.31039-.34239,9.53184,9.53184,0,0,1-6.701,1.95346.23182.23182,0,0,0-.0418.46176,10.03112,10.03112,0,0,0,4.945-.81017,9.76555,9.76555,0,0,0,.878-.44116A7.83017,7.83017,0,0,0,15.132,23.18425h.02117a.2317.2317,0,0,0,.02063-.46288Z" fill="#fff"/><path id="Trazado_53" data-name="Trazado 53" d="M13.09716,23.24506A8.33267,8.33267,0,0,1,7.96007,12.7256a.23279.23279,0,0,0-.29357-.2941,10.18807,10.18807,0,0,1-1.06191.29191c-.32557.07161-.66038.12864-1.00171.16984a10.81764,10.81764,0,0,1-2.10922.04233.23225.23225,0,0,0-.03309.46288,11.245,11.245,0,0,0,2.19766-.045c.3565-.04285.70869-.10253,1.04565-.17745q.34755-.07572.68644-.17474a8.79062,8.79062,0,0,0,5.55383,10.68062.23194.23194,0,0,0,.153-.43791h0Z" fill="#fff"/><path id="Trazado_54" data-name="Trazado 54" d="M10.99175,23.29328a9.28926,9.28926,0,0,1-4.32261-9.26164.23331.23331,0,0,0-.27132-.26211c-.31146.05425-.63487.101-.96153.13188a11.8194,11.8194,0,0,1-1.99579.01789.23183.23183,0,1,0-.03474.46235h0a12.24445,12.24445,0,0,0,2.075-.019c.2328-.02226.46232-.05425.68915-.0879a9.74515,9.74515,0,0,0,4.57873,9.41306.23193.23193,0,0,0,.2431-.395Z" fill="#fff"/><path id="Trazado_55" data-name="Trazado 55" d="M15.39248,6.02245a.23606.23606,0,0,0,.191.09114,9.39508,9.39508,0,0,1,1.95836.15143,9.2036,9.2036,0,0,1,2.62851.91324.23205.23205,0,0,0,.21706-.41022h0a9.66388,9.66388,0,0,0-2.76091-.95881,9.84352,9.84352,0,0,0-1.73971-.16282,11.97424,11.97424,0,0,0,.43738-3.21784c0-.29847-.0114-.60284-.03312-.90456a.23205.23205,0,1,0-.46288.03365h0c.02113.29032.032.5833.032.8682a11.50622,11.50622,0,0,1-.50574,3.385A.23661.23661,0,0,0,15.39248,6.02245Z" fill="#fff"/><path id="Trazado_56" data-name="Trazado 56" d="M6.54924,19.6637a10.20177,10.20177,0,0,1-.93331-4.27489c0-.08412,0-.16765.00381-.25177a.23383.23383,0,0,0-.22889-.23873.21692.21692,0,0,0-.02179.00053,12.78163,12.78163,0,0,1-1.93611.00974.232.232,0,1,0-.02278.46341h0a12.69324,12.69324,0,0,0,1.74239.00543v.01192a10.66425,10.66425,0,0,0,.97673,4.4691.23187.23187,0,0,0,.42108-.19428h0Z" fill="#fff"/><path id="Trazado_57" data-name="Trazado 57" d="M7.82551,21.7501a8.4154,8.4154,0,0,1-.9138-1.45587.232.232,0,0,0-.41622.20514h0A8.83771,8.83771,0,0,0,8.3182,22.98354a.23183.23183,0,1,0,.32016-.33537A8.41785,8.41785,0,0,1,7.82551,21.7501Z" fill="#fff"/><path id="Trazado_58" data-name="Trazado 58" d="M17.767,4.30122a.241.241,0,0,0,.14433.09168,11.16632,11.16632,0,0,1,1.21987.30006.23207.23207,0,1,0,.13565-.44387c-.35-.1085-.70544-.197-1.05923-.27131.02769-.24688.05048-.49865.06512-.7548.00377-.06511.00649-.13129.0092-.19753a.23191.23191,0,0,0-.46341-.01954c0,.06406-.00543.12751-.0092.19044-.01848.31961-.04723.6349-.08572.93768A.24164.24164,0,0,0,17.767,4.30122Z" fill="#fff"/><path id="Trazado_59" data-name="Trazado 59" d="M4.68527,16.14089a.23118.23118,0,0,0-.23657-.21706c-.13785.00271-.52853,0-.95991-.0255a.23189.23189,0,0,0-.02875.46288h0c.25993.01629.522.02384.7803.026a11.65454,11.65454,0,0,0,1.60892,4.983.23194.23194,0,1,0,.39773-.23873A11.18753,11.18753,0,0,1,4.68527,16.14089Z" fill="#fff"/><path id="Trazado_60" data-name="Trazado 60" d="M4.95443,4.46291a.23168.23168,0,0,0,.07542-.01245A2.12659,2.12659,0,0,0,6.44558,2.76017a.232.232,0,1,0-.45851-.07108h0A1.6637,1.6637,0,0,1,4.879,4.01149a.23171.23171,0,0,0,.07541.45149Z" fill="#fff"/><path id="Trazado_61" data-name="Trazado 61" d="M4.33689,5.55036A3.12185,3.12185,0,0,0,7.41741,1.9386a.23186.23186,0,0,0-.458.07273,2.659,2.659,0,0,1-2.622,3.07509.232.232,0,0,0,0,.46394Z" fill="#fff"/><path id="Trazado_62" data-name="Trazado 62" d="M3.8594,6.50805a4.17765,4.17765,0,0,0,.478.02769A4.09685,4.09685,0,0,0,7.97309,4.33865a.2323.2323,0,0,0-.41078-.21707A3.63567,3.63567,0,0,1,4.33745,6.07074a3.72552,3.72552,0,0,1-.42433-.02444.23194.23194,0,0,0-.05425.46069h0Z" fill="#fff"/><path id="Trazado_63" data-name="Trazado 63" d="M7.96385,3.81231A.23172.23172,0,0,0,8.25451,3.661l.0002-.00066A4.13031,4.13031,0,0,0,8.309,1.38676a.232.232,0,1,0-.44877.11777h0A3.666,3.666,0,0,1,7.813,3.52205.23172.23172,0,0,0,7.96385,3.81231Z" fill="#fff"/><path id="Trazado_64" data-name="Trazado 64" d="M3.58318,7.46587a5.15167,5.15167,0,0,0,.75371.05425A5.09367,5.09367,0,0,0,9.21624.9776a.23185.23185,0,0,0-.4444.13241h0a4.62967,4.62967,0,0,1-4.43492,5.9467A4.6886,4.6886,0,0,1,3.651,7.00624a.232.232,0,1,0-.06835.459Z" fill="#fff"/><path id="Trazado_65" data-name="Trazado 65" d="M3.42908,8.43879A6.07316,6.07316,0,0,0,9.964,4.72231a5.977,5.977,0,0,0,.44821-2.29155,6.06142,6.06142,0,0,0-.254-1.743.232.232,0,1,0-.4444.13348h0a5.6343,5.6343,0,0,1-.1704,3.70343v.00378h0A5.60919,5.60919,0,0,1,3.50015,7.978a.23183.23183,0,1,0-.06892.45851h0Z" fill="#fff"/><path id="Trazado_66" data-name="Trazado 66" d="M3.3895,9.42854a7.06617,7.06617,0,0,0,7.745-8.91548A.232.232,0,0,0,10.68791.639,6.59728,6.59728,0,0,1,3.44971,8.9689a.23193.23193,0,1,0-.0624.45964H3.3895Z" fill="#fff"/><path id="Trazado_67" data-name="Trazado 67" d="M11.10462,5.85149A7.57631,7.57631,0,0,1,3.44752,9.9619a.23194.23194,0,0,0-.05425.46069h0a8.10639,8.10639,0,0,0,3.70238-.43082A8.05643,8.05643,0,0,0,12.13725.45285a.232.232,0,0,0-.44983.11393h0A7.60174,7.60174,0,0,1,11.10409,5.852Z" fill="#fff"/><path id="Trazado_68" data-name="Trazado 68" d="M11.84693,6.55693A8.53646,8.53646,0,0,1,10.3433,8.53914c-.22465.1807-.44225.375-.65117.57682h0a8.51178,8.51178,0,0,1-2.14449,1.25781H7.54383l-.01249.00543A8.2868,8.2868,0,0,1,3.441,10.936a.23184.23184,0,0,0-.04233.46175,8.74093,8.74093,0,0,0,4.32476-.59688l.01736-.00815A8.97118,8.97118,0,0,0,9.991,9.46755h0l.007-.006a8.601,8.601,0,0,0,.66256-.58933h0l.00434-.00437a9.0077,9.0077,0,0,0,2.70229-6.44157A9.11173,9.11173,0,0,0,13.1638.50922a.232.232,0,1,0-.45364.09771,8.64594,8.64594,0,0,1,.19318,1.81946A8.54025,8.54025,0,0,1,11.84693,6.55693Z" fill="#fff"/><path id="Trazado_69" data-name="Trazado 69" d="M12.573,7.27371V7.2802l-.006.00974a9.555,9.555,0,0,1-1.4054,1.83032.23225.23225,0,0,0,.30391.34888,7.36625,7.36625,0,0,1,8.93335.12208.23186.23186,0,1,0,.28649-.36464,7.82966,7.82966,0,0,0-8.261-.88013q.285-.38909.5323-.80474L12.967,7.526a9.98,9.98,0,0,0,1.39182-5.09532A10.17359,10.17359,0,0,0,14.21071.7045a.23187.23187,0,1,0-.45692.07922,9.71941,9.71941,0,0,1,.14109,1.64691A9.51836,9.51836,0,0,1,12.573,7.27371Z" fill="#fff"/><path id="Trazado_70" data-name="Trazado 70" d="M13.87421,6.91721a.23345.23345,0,0,0,.02822.24257.2306.2306,0,0,0,.229.08412,8.39773,8.39773,0,0,1,3.12934-.05425,8.22012,8.22012,0,0,1,3.14239,1.23609.232.232,0,1,0,.25449-.388A8.68165,8.68165,0,0,0,17.33945,6.7322a8.79665,8.79665,0,0,0-2.86458-.01848,10.967,10.967,0,0,0,.865-4.27972,11.14835,11.14835,0,0,0-.08737-1.39347.23191.23191,0,1,0-.46016.05809,10.6772,10.6772,0,0,1,.08359,1.33545A10.50914,10.50914,0,0,1,13.87421,6.91721Z" fill="#fff"/><path id="Trazado_71" data-name="Trazado 71" d="M16.65242,5.126a.23729.23729,0,0,0,.1503.07545,9.52424,9.52424,0,0,1,.955.13513,10.09807,10.09807,0,0,1,2.01155.59688.23209.23209,0,1,0,.178-.4287h0A10.56723,10.56723,0,0,0,17.8446,4.878c-.24688-.04775-.49759-.08631-.74778-.11558A12.6985,12.6985,0,0,0,17.309,2.4291V2.18819s.00272-.25019-.22627-.25125c-.242,0-.23767.26483-.23767.26483V2.4291a12.5499,12.5499,0,0,1-.24852,2.4961A.236.236,0,0,0,16.65242,5.126Z" fill="#fff"/></g></svg>