<svg id="Capa_1" data-name="Capa 1" xmlns="http://www.w3.org/2000/svg" viewBox="0 0 24 24"><path d="M21.5272,15.02585a1.896,1.896,0,0,0-1.95837-1.949c-.3244-.002-.87495-.00165-1.22087-.00113q-.00006.85671,0,1.71344a1.28483,1.28483,0,0,1-.30643,1.00436,1.34237,1.34237,0,0,1-1.0037.28733l-1.03822,0v2.38935l-.61037.08961c-.11723.0172-.23476.03719-.35257.05718a7.34413,7.34413,0,0,1-1.02183.1233l-.0318.00047c-.02884,0-.05731-.00131-.08547-.00352.00027.01155.0017.023.00164.03459a1.15648,1.15648,0,0,1-.35292.82317,1.19608,1.19608,0,0,1-.50559.2988,1.20049,1.20049,0,0,1-.287.46959,1.16893,1.16893,0,0,1-.70622.34955,1.19562,1.19562,0,0,1-1.00688.65826,1.15148,1.15148,0,0,1-.14895.20206,1.19482,1.19482,0,0,1-1.31652.29678,1.24268,1.24268,0,0,1-.35571-.2204,1.59333,1.59333,0,0,1-1.13432.46512c-.05911,0-.11959-.00306-.17979-.00906a1.17478,1.17478,0,0,1-.88891-.52271,1.092,1.092,0,0,1-.13857-.32526.974.974,0,0,1-.53569-.34939.96013.96013,0,0,1-.169-.35288,1.08491,1.08491,0,0,1-.43663-.28717,1.14527,1.14527,0,0,1-.26881-.45073,1.1527,1.1527,0,0,1-.74078-.8613,1.24677,1.24677,0,0,1-.02511-.18275,1.29592,1.29592,0,0,1-.72283-.445,1.44691,1.44691,0,0,1-.20593-.94121l.27041-3.87808.67618.01883c.11188.03855.22194.07558.33064.11219.24259.08166.49342.16608.73942.25909a.60081.60081,0,0,0,.2119.04412.44984.44984,0,0,0,.12455-.01783l0-.55574q0-.14682,0-.29363H5.964s-.99732-.00108-1.47149.00022A1.90273,1.90273,0,0,0,2.47067,15.082q-.0036,2.698-.00054,5.396a1.91977,1.91977,0,0,0,2.10476,2.12129q5.85616.00067,11.71235.00017s2.80977.00361,3.31156-.00089A1.8947,1.8947,0,0,0,21.527,20.65995Q21.53456,17.84292,21.5272,15.02585ZM19.08772,21.331a1.2687,1.2687,0,1,1,1.26268-1.26516A1.2804,1.2804,0,0,1,19.08772,21.331Z" fill="#142667"/><path d="M17.63428,1.67586a.27667.27667,0,0,0-.27666-.27666H13.38254q-2.975,0-5.95.00017c-.55579.00012-.59232.03559-.59237.58092q-.00051,5.69479,0,11.38961a10.60737,10.60737,0,0,1,.9882-.45006,2.12957,2.12957,0,0,1,.78184-.15193,2.21857,2.21857,0,0,1,1.39185.51333c.17606-.09937.352-.19915.52571-.299a1.75076,1.75076,0,0,1,.87775-.24793,1.67426,1.67426,0,0,1,1.06538.4008l.05148.04222c.34191.2804.69506.57,1.037.876.359-.08429.72385-.1627,1.077-.23863q.22959-.04939.463-.1001l1.059-.23143v1.88363q.43974,0,.87948,0c.55719-.00006.59605-.03722.59613-.57776q.00069-4.20711-.00037-8.41422l.00068.00009ZM9.59664,3.13308c.73991-.008,1.48025.00753,2.22-.00559.3172-.00562.42629.10023.42047.37166-.02262,1.05549.13359.88742-.98565.90121-.2869.00353-.5739.00053-.86085.00053-.46818-.0002-.93665-.00892-1.40444.003-.2949.0075-.40168-.09769-.39691-.35085C8.6098,2.95982,8.45112,3.14548,9.59664,3.13308Zm6.00177,8.88486c-.73992.008-1.48025-.00752-2.22.00557-.31686.0056-.42667-.0996-.42083-.37135.02272-1.0561-.13383-.88764.98519-.90151.28689-.00356.57389-.00053.86084-.00053.46818.00019.93665.00891,1.40444-.003.2945-.00748.40216.09692.3974.35043C16.585,12.191,16.74324,12.00561,15.59841,12.01794ZM16.609,8.63366c-.03.97759.12171.842-.96507.84467-2.1794.00537-4.35889-.00568-6.5382.00823-.39485.00252-.5328-.09825-.52076-.44959.03232-.94383-.11762-.8204.94313-.82533,1.02914-.00479,2.05834-.001,3.0875-.001,1.16539,0,2.331.01063,3.496-.0061C16.48617,8.19912,16.61916,8.301,16.609,8.63366Zm.00043-2.51337c-.03036.93948.115.81393-.95006.81907-1.014.00489-2.02807.00105-3.0421.00105-1.18053,0-2.36126-.01117-3.54144.00635-.3833.00569-.49953-.11073-.48972-.4358.02927-.97068-.12384-.8355.972-.83826,2.17941-.00547,4.35891.00623,6.5382-.00863C16.50074,5.66132,16.62045,5.77754,16.60938,6.12029Z" fill="#142667"/><path d="M5.069,18.12952a.20446.20446,0,0,1-.03855-.00025c-.54344-.17319-.54344-.17321-.54344-.74206q0-1.46606,0-2.9321v-.25189c.36459.12559.71079.2358,1.05017.36406a1.25463,1.25463,0,0,0,1.16117-.12109A10.12589,10.12589,0,0,1,8.14788,13.732a1.29342,1.29342,0,0,1,1.37784.287c-.08352.04872-.14611.0847-.2082.12153-.42855.25423-.868.49215-1.28229.76779a1.02748,1.02748,0,0,0-.397,1.17447,1.04518,1.04518,0,0,0,.96606.74927,1.43511,1.43511,0,0,0,.52559-.12142c.3502-.14354.689-.31463,1.03451-.46994a.68614.68614,0,0,1,.87889.16275q.97817.9759,1.95353,1.95459a.49121.49121,0,0,1,.04965.72717.48538.48538,0,0,1-.72731-.05861c-.24122-.23153-.48493-.46047-.72754-.69055l-.05236.04529c.07728.10022.15021.2042.23279.29985.15618.1809.32263.353.47609.53614a.458.458,0,0,1-.00553.64745.46514.46514,0,0,1-.64837.02031c-.27572-.22893-.53973-.4719-.81118-.706a.6749.6749,0,0,0-.28122-.15478,2.13135,2.13135,0,0,0,.14983.18041c.21145.206.43034.40449.63917.61306a.483.483,0,0,1,.031.69727.47324.47324,0,0,1-.69584-.01946c-.27675-.26564-.54855-.53644-.82249-.805L9.748,19.7409c.18016.20685.37057.4059.53635.62369a.8457.8457,0,0,1,.19177.40062.45646.45646,0,0,1-.63859.44082.71775.71775,0,0,1-.39992-.58044,1.05616,1.05616,0,0,0-.60966-.96144.44935.44935,0,0,1-.18817-.19377,1.14769,1.14769,0,0,0-.55223-.58338.3764.3764,0,0,1-.16137-.17,1.10116,1.10116,0,0,0-.54668-.56027.29873.29873,0,0,1-.143-.13428,1.0213,1.0213,0,0,0-.99676-.6795,1.14567,1.14567,0,0,0-1.08926.63C5.124,18.02186,5.09908,18.07171,5.069,18.12952Z" fill="#142667"/><path d="M15.28563,14.5672v3.28616a11.32482,11.32482,0,0,1-1.29218.17325.882.882,0,0,1-.54351-.26836c-.70808-.67244-1.39662-1.36547-2.0914-2.05189a.70084.70084,0,0,0-.96521-.15576c-.46364.23291-.92132.47767-1.3851.71028a.62783.62783,0,0,1-.777-.09234.55125.55125,0,0,1,.04977-.88943,5.80573,5.80573,0,0,1,.57313-.35295c.702-.39728,1.4093-.78534,2.10857-1.18735a.77236.77236,0,0,1,.95465.071c.36923.30286.7396.60518,1.09427.92462a.73312.73312,0,0,0,.71711.17563C14.23974,14.78949,14.75416,14.68337,15.28563,14.5672Z" fill="#142667"/><path d="M7.67571,20.55989c-.79644.10786-.93846-.02764-.75-.7261-.22935.02639-.46379.16375-.66889-.05446-.19562-.20812-.12324-.425-.01427-.67548-.11193.02232-.19005.03781-.26814.05349a.43878.43878,0,0,1-.54974-.35284.89566.89566,0,0,1,.74163-.96509c.41591-.02208.63621.235.62188.67188a1.66775,1.66775,0,0,1,.54584.241,1.55291,1.55291,0,0,1,.21262.54264c.53919.0625.71118.25956.62876.7829.04194,0,.08251.00248.1227-.00041a.54159.54159,0,0,1,.57446.30518.60608.60608,0,0,1-.09009.68921.88908.88908,0,0,1-.80616.32341.43008.43008,0,0,1-.38224-.621C7.61884,20.70364,7.64724,20.63432,7.67571,20.55989Z" fill="#142667"/></svg>