<svg id="Capa_1" data-name="Capa 1" xmlns="http://www.w3.org/2000/svg" viewBox="0 0 24 24"><path d="M23.37252,12v4.97574a.71028.71028,0,0,1-.71052.71052H20.52939v4.26416a1.42215,1.42215,0,0,1-1.421,1.4221H4.89164a1.42215,1.42215,0,0,1-1.421-1.4221V17.68626H1.338a.71028.71028,0,0,1-.71052-.71052V12A2.84291,2.84291,0,0,1,3.47061,9.15687V2.04958a1.42215,1.42215,0,0,1,1.421-1.4221H17.09736a1.4212,1.4212,0,0,1,1.005.41607l2.011,2.00993a1.42366,1.42366,0,0,1,.41607,1.006V9.15687A2.84291,2.84291,0,0,1,23.37252,12ZM17.68626,6.31374H15.55364a.71027.71027,0,0,1-.71051-.71051V3.47061H6.31374V10.5779H17.68626Zm0,9.95042H6.31374v4.26523H17.68626Zm3.19839-3.55364a1.06631,1.06631,0,1,0-1.06578,1.06684A1.0661,1.0661,0,0,0,20.88465,12.71052Z" fill="#FFFFFF"/></svg>