<svg id="Capa_1" data-name="Capa 1" xmlns="http://www.w3.org/2000/svg" viewBox="0 0 24 24"><path d="M8.5,23.3H8l-.5-.2L2.2,21.3a1.9,1.9,0,0,1-1.5-2V2.8a.4.4,0,0,1,.1-.3A1.9,1.9,0,0,1,2.6.7H13a2.7,2.7,0,0,1,2.7,2.5c.1,1,0,2.1,0,3.1a.9.9,0,0,1-1.3.8.8.8,0,0,1-.5-.8V3.7a1,1,0,0,0-1.1-1.1H8.7a1.8,1.8,0,0,1,1.4,2.1V18.6h2.7a1,1,0,0,0,1.1-1.1V13.6a1.1,1.1,0,0,1,1-.7,1,1,0,0,1,.8,1,22.9,22.9,0,0,1,0,3.7,2.7,2.7,0,0,1-2.8,2.8H10.1v1.1a1.7,1.7,0,0,1-.7,1.4Z"/><path d="M23.3,10.3l-.6.7-3.4,3.5c-.3.2-.5.4-.9.3a1,1,0,0,1-.8-1V11.1H14a.9.9,0,0,1-1-.8.9.9,0,0,1,.9-1.1h3.7V6.5a1,1,0,0,1,.6-1,.9.9,0,0,1,1.1.3l3.6,3.6c.2.2.2.4.4.5Z"/></svg>