<svg id="Capa_1" data-name="Capa 1" xmlns="http://www.w3.org/2000/svg" viewBox="0 0 24 24"><path d="M6.3,14.3h-1v1.8h1a.9.9,0,0,0,1-.9h0C7.3,14.6,6.9,14.3,6.3,14.3Z"/><path d="M11.6,14.3h-1v3.6h1a1.7,1.7,0,0,0,1.8-1.8h0A1.7,1.7,0,0,0,11.6,14.3Z"/><path d="M21.8,6.3,16.6,1.1a1.5,1.5,0,0,0-.9-.4h-.3V7.5h6.8V7.2A1.5,1.5,0,0,0,21.8,6.3Z"/><path d="M13.7,7.9V.7H3.1A1.3,1.3,0,0,0,1.8,2V22a1.3,1.3,0,0,0,1.3,1.3H20.9A1.3,1.3,0,0,0,22.2,22V9.2H15A1.3,1.3,0,0,1,13.7,7.9Zm-5,7.3a2.1,2.1,0,0,1-2.4,2.1h-1v1.1a.7.7,0,0,1-.6.7.7.7,0,0,1-.7-.7V13.8a.7.7,0,0,1,.7-.7H6.4a2.1,2.1,0,0,1,2.3,2.1Zm6,.9A3,3,0,0,1,11.6,19H10a.7.7,0,0,1-.7-.6V13.8a.7.7,0,0,1,.7-.7h1.6a3,3,0,0,1,3.1,3Zm.8-2.3a.7.7,0,0,1,.6-.7h3.3a.6.6,0,0,1,.6.6.6.6,0,0,1-.6.6H16.8v1.3H19a.5.5,0,0,1,.6.6c0,.3-.2.5-.6.5H16.8v1.7a.7.7,0,0,1-.7.7.7.7,0,0,1-.6-.7Z"/></svg>