<svg id="Capa_1" data-name="Capa 1" xmlns="http://www.w3.org/2000/svg" viewBox="0 0 24 24"><path d="M22.92815,21.90141a1.02251,1.02251,0,0,1-1.02451,1.02452H2.09636a1.02251,1.02251,0,0,1-1.02451-1.02452V17.12035a1.02251,1.02251,0,0,1,1.02451-1.02452H7.90194v.34151a2.39115,2.39115,0,0,0,2.39054,2.39053h3.415a2.39115,2.39115,0,0,0,2.39054-2.39053v-.34151h5.80558a1.02251,1.02251,0,0,1,1.02451,1.02452ZM10.29248,17.46185A1.02251,1.02251,0,0,1,9.268,16.43734V9.26663H5.52386a.85138.85138,0,0,1-.60119-1.45495l6.49215-6.49749a.82663.82663,0,0,1,1.165,0l6.49748,6.49749a.85138.85138,0,0,1-.60119,1.45495H14.732v7.17071a1.02251,1.02251,0,0,1-1.02452,1.02451Zm6.48859,2.56129a.85376.85376,0,1,0,.85376.85376A.85628.85628,0,0,0,16.78107,20.02314Zm2.732,0a.85376.85376,0,1,0,.85376.85376A.85627.85627,0,0,0,19.5131,20.02314Z" fill="#2196f3"/></svg>