<svg id="Capa_1" data-name="Capa 1" xmlns="http://www.w3.org/2000/svg" viewBox="0 0 24 24"><path d="M16.57165,8.05035a.55132.55132,0,0,0-.77972,0L10.62176,13.221,8.20807,10.80682a.55133.55133,0,0,0-.77973,0l-.77972.7793a.55132.55132,0,0,0,0,.77972l3.58374,3.58374a.5502.5502,0,0,0,.77881,0l6.34021-6.34014a.5514.5514,0,0,0,0-.77979Z" fill="#2196f3"/><path d="M20.70111,4.34955c-2.5907-1.08515-5.18481-2.16211-7.76965-3.261a2.29127,2.29127,0,0,0-1.90277.01471C8.40808,2.21729,5.77942,3.3125,3.15124,4.40875A2.10388,2.10388,0,0,0,1.56561,6.79926a19.56844,19.56844,0,0,0,2.35993,9.20385A15.31184,15.31184,0,0,0,11.02106,22.887a2.251,2.251,0,0,0,1.957.00067,15.38179,15.38179,0,0,0,6.2362-5.44336A18.69586,18.69586,0,0,0,22.4292,7.1084C22.48529,5.4292,22.20447,4.97925,20.70111,4.34955ZM20.42627,6.9436a16.3938,16.3938,0,0,1-5.2226,12.0658,17.00958,17.00958,0,0,1-2.76336,1.90106,1.11517,1.11517,0,0,1-.90369-.00384A12.57431,12.57431,0,0,1,6.5968,16.51953,17.47758,17.47758,0,0,1,3.54938,6.96722.69558.69558,0,0,1,4.04816,6.181c2.49237-1.01715,4.96991-2.07092,7.4663-3.07788a1.43306,1.43306,0,0,1,.97724.00476c2.49646,1.00726,4.97558,2.05725,7.4657,3.08038C20.33642,6.344,20.54962,6.54865,20.42627,6.9436Z" fill="#2196f3"/></svg>