<svg id="Capa_1" data-name="Capa 1" xmlns="http://www.w3.org/2000/svg" viewBox="0 0 24 24"><path d="M22.06631,12.00146a1.10936,1.10936,0,0,1-.12233.50826A11.20926,11.20926,0,0,1,12,18.71088a11.20827,11.20827,0,0,1-9.944-6.20116,1.1231,1.1231,0,0,1,0-1.01944A11.20926,11.20926,0,0,1,12,5.28912a11.20827,11.20827,0,0,1,9.944,6.20116A1.11694,1.11694,0,0,1,22.06631,12.00146Zm-10.0634,5.0317a5.03322,5.03322,0,0,0,5.03025-5.03025V12A5.03316,5.03316,0,1,0,12,17.03316ZM12.00874,8.646a3.34513,3.34513,0,1,1-3.23165,2.47,1.67348,1.67348,0,0,0,2.3389-2.3389A3.34367,3.34367,0,0,1,12,8.64456Z" fill="#438bca"/></svg>